<svg xmlns="http://www.w3.org/2000/svg" width="187.185" height="48.4" viewBox="0 0 187.185 48.4">
  <g id="Symbols" transform="translate(0 -0.173)">
    <g id="Horizontal-Menu" transform="translate(0 0.173)">
      <g id="African-Bank-Logo" transform="translate(0 0)">
        <g id="Group_7" data-name="Group 7" transform="translate(0 0)">
          <g id="Group_6" data-name="Group 6" transform="translate(0 0)">
            <path id="Fill-1" d="M63.584,25.161V13.474h-2.2V10.742h2.2V9.6c0-3.022,1.807-4.464,4.764-4.464a8.424,8.424,0,0,1,2.562.4V8.37a6.98,6.98,0,0,0-1.874-.358c-1.376,0-1.9.457-1.9,1.844v.886h3.291v2.732H67.132V25.161Z" transform="translate(-5.851 -0.49)" fill="#fff" fill-rule="evenodd"/>
            <path id="Fill-3" d="M73.555,25.728V11.308h3.521v.968a4.732,4.732,0,0,1,3.19-1.193,5.791,5.791,0,0,1,1.5.245v3.228a7,7,0,0,0-1.789-.289,4.214,4.214,0,0,0-2.875.982V25.728Z" transform="translate(-7.011 -1.056)" fill="#fff" fill-rule="evenodd"/>
            <path id="Fill-5" d="M85.271,25.19h3.55V10.77h-3.55Zm1.79-15.9a1.926,1.926,0,1,1,1.982-1.925,1.94,1.94,0,0,1-1.982,1.925Z" transform="translate(-8.11 -0.519)" fill="#fff" fill-rule="evenodd"/>
            <path id="Fill-7" d="M99.4,25.953c-4.494,0-7.026-2.811-7.026-7.2,0-4.194,2.232-7.674,6.912-7.674a8.73,8.73,0,0,1,3.763.757v2.977a7.4,7.4,0,0,0-3.478-.86c-2.47,0-3.562,1.63-3.562,4.8,0,2.929,1.377,4.294,3.734,4.294a6,6,0,0,0,3.563-.968v3.048a8.735,8.735,0,0,1-3.905.822" transform="translate(-8.805 -1.056)" fill="#fff" fill-rule="evenodd"/>
            <path id="Fill-8" d="M111.671,23.164a3.276,3.276,0,0,0,2.131-.745V19.665c-.233-.009-.524-.02-.756-.02-2.371,0-3.334.637-3.334,1.872,0,1.046.664,1.647,1.96,1.647m5.264,2.789a2.781,2.781,0,0,1-2.519-1.3,5.376,5.376,0,0,1-3.575,1.3c-2.776,0-4.708-1.574-4.708-4.21,0-3.137,2.721-4.548,6.625-4.548.335,0,.716.015,1.043.034v-.554c0-1.823-.684-2.66-2.532-2.66a8.919,8.919,0,0,0-3.849.965V11.951a11.37,11.37,0,0,1,4.364-.868c3.349,0,5.566,1.689,5.566,5.113v6.054c0,.7.26.83.7.83a2.447,2.447,0,0,0,.353-.031l.365-.062.128-.021v2.57a4.381,4.381,0,0,1-1.961.418" transform="translate(-10.117 -1.056)" fill="#fff" fill-rule="evenodd"/>
            <path id="Fill-9" d="M122.677,25.728V11.308h3.493v.8a6.63,6.63,0,0,1,3.533-1.028c3.648,0,4.908,2.3,4.908,5.2v9.449h-3.549v-9c0-1.823-.5-2.716-2.331-2.716a4.8,4.8,0,0,0-2.5.8V25.728Z" transform="translate(-11.694 -1.056)" fill="#fff" fill-rule="evenodd"/>
            <path id="Fill-10" d="M165.5,23.164a3.28,3.28,0,0,0,2.131-.745V19.665c-.233-.009-.523-.02-.757-.02-2.369,0-3.333.637-3.333,1.872,0,1.046.666,1.647,1.96,1.647m5.264,2.789a2.781,2.781,0,0,1-2.519-1.3,5.376,5.376,0,0,1-3.577,1.3c-2.775,0-4.707-1.574-4.707-4.21,0-3.137,2.723-4.548,6.625-4.548.335,0,.717.015,1.044.034v-.554c0-1.823-.684-2.66-2.532-2.66a8.913,8.913,0,0,0-3.848.965V11.951a11.373,11.373,0,0,1,4.363-.868c3.351,0,5.566,1.689,5.566,5.113v6.054c0,.7.26.83.7.83a2.47,2.47,0,0,0,.353-.031l.365-.062.127-.021v2.57a4.372,4.372,0,0,1-1.96.418" transform="translate(-15.248 -1.056)" fill="#fff" fill-rule="evenodd"/>
            <path id="Fill-11" d="M176.509,25.728V11.308H180v.8a6.627,6.627,0,0,1,3.533-1.028c3.648,0,4.908,2.3,4.908,5.2v9.449h-3.549v-9c0-1.823-.5-2.716-2.332-2.716a4.794,4.794,0,0,0-2.5.8V25.728Z" transform="translate(-16.825 -1.056)" fill="#fff" fill-rule="evenodd"/>
            <path id="Fill-12" d="M204.3,25.3a4.265,4.265,0,0,1-3.783-2.044l-3.382-4.384v6.316h-3.551V5.387h3.551V16.2l4.462-5.433h4.038l-5.517,6.527,3.5,4.413c.423.547.709.719,1.2.719.1,0,.675-.073.675-.073V25.1a4.006,4.006,0,0,1-1.19.2" transform="translate(-18.453 -0.513)" fill="#fff" fill-rule="evenodd"/>
            <path id="Fill-13" d="M148.737,13.395c2.241,0,3.213-.989,3.213-2.752,0-1.51-.937-2.565-3.182-2.565h-1.839v5.317Zm.095,8.827c2.31,0,3.472-1.055,3.472-3.007,0-2.026-1.079-3.133-3.406-3.133h-1.969v6.14Zm.482,2.939h-6.049V5.138h5.856c4.208,0,6.492,2.038,6.492,5.155a4.53,4.53,0,0,1-2.452,4.137l-.413.213.435.164a4.572,4.572,0,0,1,3.073,4.5c0,3.556-2.665,5.851-6.943,5.851Z" transform="translate(-13.656 -0.49)" fill="#fff" fill-rule="evenodd"/>
            <path id="Fill-14" d="M46.153,25.161H42.4L49.188,5.137h4.082l6.558,20.024H55.819l-1.2-4.084h-7.21Zm7.571-7.126L51.093,9.087l-2.749,8.948Z" transform="translate(-4.042 -0.49)" fill="#fff" fill-rule="evenodd"/>
            <path id="Fill-15" d="M15.727,30.464a24.985,24.985,0,0,1-10.72-2.034,12.378,12.378,0,0,1-2.318-1.393,5.339,5.339,0,0,1-.7-.626A6.545,6.545,0,0,1,.312,23.551a5.191,5.191,0,0,1-.2-.909,11.872,11.872,0,0,1-.067-2.674A23.968,23.968,0,0,1,3.611,9.812C6.754,4.456,9.976,2.028,11.991.95c-4.375,4.471-5.7,14.688-4.477,18.83a3.927,3.927,0,0,0,1.2,1.917c.15.163,2.008,2.08,7.009,2.08,5.195,0,7-2.068,7.018-2.092a3.431,3.431,0,0,0,.876-1.493c.009-.025.658-1.844-.679-5.054,4.086,5.9,5.849,14.194-4.476,15.222q-1.281.1-2.74.1l16.2,18.027" transform="translate(0 -0.09)" fill="#fff" fill-rule="evenodd"/>
            <path id="Fill-16" d="M17.277,8.1a3.487,3.487,0,0,0-1.548.042c-.031.006-2.75.509-5.347,4.936a15.694,15.694,0,0,0-1.155,2.382C9.323,8.746,12.687-.69,18.286.04a5.52,5.52,0,0,1,.9.282A12.418,12.418,0,0,1,21.569,1.6a24.374,24.374,0,0,1,7.152,8.119,24.023,24.023,0,0,1,3.57,10.154,11.923,11.923,0,0,1-.066,2.673,5.294,5.294,0,0,1-.2.909,6.559,6.559,0,0,1-1.676,2.86s-.079.09-.241.24a8.279,8.279,0,0,1-.779.625,13.879,13.879,0,0,1-2.9,1.548c2.107-2.185,2.332-5.32,1.4-8.5-1.566-5.337-6.5-11.2-10.079-12.059-.115-.027-.468-.072-.468-.072" transform="translate(-0.88 0)" fill="#88bc47" fill-rule="evenodd"/>
          </g>
        </g>
      </g>
    </g>
  </g>
</svg>
