<svg xmlns="http://www.w3.org/2000/svg" width="434.908" height="112.453" viewBox="0 0 434.908 112.453">
  <g id="Symbols" transform="translate(0 -0.173)">
    <g id="Horizontal-Menu" transform="translate(0 0.173)">
      <g id="African-Bank-Logo" transform="translate(0 0)">
        <g id="Group_7" data-name="Group 7" transform="translate(0 0)">
          <g id="Group_6" data-name="Group 6" transform="translate(0 0)">
            <path id="Fill-1" d="M66.5,51.66V24.507H61.38V18.158H66.5V15.509c0-7.021,4.2-10.372,11.068-10.372a19.573,19.573,0,0,1,5.952.921v6.589a16.218,16.218,0,0,0-4.354-.832c-3.2,0-4.422,1.062-4.422,4.283v2.059h7.647v6.349H74.745V51.66Z" transform="translate(67.637 5.661)" fill="#fff" fill-rule="evenodd"/>
            <path id="Fill-3" d="M73.555,45.109v-33.5h8.182v2.248a11,11,0,0,1,7.411-2.773,13.455,13.455,0,0,1,3.49.57v7.5a16.251,16.251,0,0,0-4.157-.671A9.792,9.792,0,0,0,81.8,20.763V45.109Z" transform="translate(81.053 12.213)" fill="#fff" fill-rule="evenodd"/>
            <path id="Fill-5" d="M85.526,51.323h8.247V17.82H85.526ZM89.686,14.39a4.475,4.475,0,1,1,0-8.947,4.546,4.546,0,0,1,4.606,4.473,4.548,4.548,0,0,1-4.606,4.474Z" transform="translate(93.751 5.998)" fill="#fff" fill-rule="evenodd"/>
            <path id="Fill-7" d="M108.7,45.631c-10.441,0-16.325-6.53-16.325-16.718,0-9.744,5.185-17.829,16.058-17.829a20.284,20.284,0,0,1,8.744,1.758v6.917a17.2,17.2,0,0,0-8.08-2c-5.738,0-8.276,3.786-8.276,11.151,0,6.8,3.2,9.976,8.675,9.976a13.948,13.948,0,0,0,8.277-2.248v7.082a20.3,20.3,0,0,1-9.074,1.909" transform="translate(101.79 12.213)" fill="#fff" fill-rule="evenodd"/>
            <path id="Fill-8" d="M119,39.152a7.611,7.611,0,0,0,4.95-1.732v-6.4c-.54-.02-1.217-.047-1.757-.047-5.509,0-7.746,1.48-7.746,4.35,0,2.43,1.543,3.826,4.553,3.826m12.231,6.479a6.461,6.461,0,0,1-5.852-3.031,12.491,12.491,0,0,1-8.307,3.031c-6.449,0-10.938-3.656-10.938-9.782,0-7.288,6.323-10.568,15.393-10.568.778,0,1.663.035,2.424.079V24.072c0-4.237-1.589-6.181-5.883-6.181a20.722,20.722,0,0,0-8.942,2.242V13.1a26.418,26.418,0,0,1,10.14-2.017c7.781,0,12.931,3.923,12.931,11.878V37.026c0,1.626.6,1.928,1.627,1.928a5.686,5.686,0,0,0,.82-.073l.847-.143.3-.049v5.971a10.178,10.178,0,0,1-4.557.97" transform="translate(116.952 12.213)" fill="#fff" fill-rule="evenodd"/>
            <path id="Fill-9" d="M122.677,45.109v-33.5h8.116v1.864A15.4,15.4,0,0,1,139,11.083c8.475,0,11.4,5.333,11.4,12.073V45.109h-8.246V24.2c0-4.235-1.164-6.311-5.417-6.311a11.145,11.145,0,0,0-5.818,1.869V45.109Z" transform="translate(135.183 12.213)" fill="#fff" fill-rule="evenodd"/>
            <path id="Fill-10" d="M172.831,39.152a7.62,7.62,0,0,0,4.95-1.732v-6.4c-.54-.02-1.215-.047-1.759-.047-5.5,0-7.744,1.48-7.744,4.35,0,2.43,1.547,3.826,4.553,3.826m12.231,6.479A6.461,6.461,0,0,1,179.21,42.6a12.49,12.49,0,0,1-8.311,3.031c-6.447,0-10.936-3.656-10.936-9.782,0-7.288,6.327-10.568,15.393-10.568.778,0,1.665.035,2.426.079V24.072c0-4.237-1.589-6.181-5.883-6.181a20.708,20.708,0,0,0-8.942,2.242V13.1a26.423,26.423,0,0,1,10.138-2.017c7.786,0,12.933,3.923,12.933,11.878V37.026c0,1.626.6,1.928,1.627,1.928a5.739,5.739,0,0,0,.82-.073l.849-.143.294-.049v5.971a10.157,10.157,0,0,1-4.555.97" transform="translate(176.27 12.213)" fill="#fff" fill-rule="evenodd"/>
            <path id="Fill-11" d="M176.509,45.109v-33.5h8.113v1.864a15.4,15.4,0,0,1,8.208-2.388c8.475,0,11.4,5.333,11.4,12.073V45.109h-8.246V24.2c0-4.235-1.167-6.311-5.419-6.311a11.138,11.138,0,0,0-5.816,1.869V45.109Z" transform="translate(194.502 12.213)" fill="#fff" fill-rule="evenodd"/>
            <path id="Fill-12" d="M218.486,51.647c-3.447,0-5.995-1.036-8.79-4.75l-7.857-10.186V51.386h-8.25v-46h8.25V30.506L212.2,17.883h9.381L208.768,33.049,216.9,43.3c.984,1.272,1.648,1.67,2.781,1.67.24,0,1.568-.171,1.568-.171v6.391a9.307,9.307,0,0,1-2.764.455" transform="translate(213.322 5.936)" fill="#fff" fill-rule="evenodd"/>
            <path id="Fill-13" d="M155.978,24.321c5.206,0,7.466-2.3,7.466-6.395,0-3.508-2.178-5.958-7.393-5.958h-4.273V24.321ZM156.2,44.83c5.366,0,8.067-2.452,8.067-6.987,0-4.707-2.508-7.279-7.914-7.279h-4.574V44.83Zm1.12,6.828H143.265V5.138h13.606c9.776,0,15.083,4.734,15.083,11.978a10.526,10.526,0,0,1-5.7,9.612l-.958.5,1.011.382a10.623,10.623,0,0,1,7.14,10.46c0,8.262-6.192,13.595-16.132,13.595Z" transform="translate(157.869 5.662)" fill="#fff" fill-rule="evenodd"/>
            <path id="Fill-14" d="M51.116,51.66H42.4L58.167,5.137H67.65L82.886,51.66H73.574l-2.79-9.488H54.032ZM68.707,35.1l-6.115-20.79L56.2,35.1Z" transform="translate(46.725 5.661)" fill="#fff" fill-rule="evenodd"/>
            <path id="Fill-15" d="M36.54,69.522c-11.914,0-19.9-2.368-24.908-4.727a28.76,28.76,0,0,1-5.387-3.236A12.4,12.4,0,0,1,4.622,60.1a15.207,15.207,0,0,1-3.9-6.643A12.06,12.06,0,0,1,.256,51.35,27.583,27.583,0,0,1,.1,45.138c.424-5.447,2.332-13.445,8.289-23.6C15.692,9.1,23.178,3.453,27.86.95,17.694,11.339,14.606,35.076,17.459,44.7a9.124,9.124,0,0,0,2.8,4.454c.348.38,4.666,4.833,16.284,4.833,12.069,0,16.26-4.8,16.307-4.859a7.972,7.972,0,0,0,2.036-3.469c.02-.057,1.528-4.284-1.578-11.743C62.8,47.63,66.9,66.9,42.905,69.284q-2.976.235-6.366.238l37.641,41.884" transform="translate(0 1.047)" fill="#fff" fill-rule="evenodd"/>
            <path id="Fill-16" d="M27.929,18.817a8.1,8.1,0,0,0-3.6.1c-.072.013-6.39,1.182-12.423,11.469a36.464,36.464,0,0,0-2.683,5.534C9.45,20.321,17.265-1.6,30.275.092a12.826,12.826,0,0,1,2.08.656A28.853,28.853,0,0,1,37.9,3.722c4.579,3.086,10.662,8.71,16.617,18.863s7.867,18.152,8.3,23.593a27.7,27.7,0,0,1-.154,6.21,12.3,12.3,0,0,1-.469,2.112A15.24,15.24,0,0,1,58.3,61.145s-.184.21-.561.558a19.236,19.236,0,0,1-1.809,1.451,32.247,32.247,0,0,1-6.743,3.6c4.9-5.077,5.419-12.36,3.25-19.749-3.639-12.4-15.1-26.016-23.418-28.017-.267-.064-1.086-.168-1.086-.168" transform="translate(10.168 0)" fill="#88bc47" fill-rule="evenodd"/>
          </g>
        </g>
      </g>
    </g>
  </g>
</svg>
