<svg xmlns="http://www.w3.org/2000/svg" width="31.927" height="48.4" viewBox="0 0 31.927 48.4">
  <g id="Symbols" transform="translate(0 -0.173)">
    <g id="Horizontal-Menu" transform="translate(0 0.173)">
      <g id="African-Bank-Logo" transform="translate(0 0)">
        <g id="Group_7" data-name="Group 7" transform="translate(0 0)">
          <g id="Group_6" data-name="Group 6" transform="translate(0 0)">
            <path id="Fill-15" d="M15.727,30.464a24.985,24.985,0,0,1-10.72-2.034,12.378,12.378,0,0,1-2.318-1.393,5.339,5.339,0,0,1-.7-.626A6.545,6.545,0,0,1,.312,23.551a5.191,5.191,0,0,1-.2-.909,11.872,11.872,0,0,1-.067-2.674A23.968,23.968,0,0,1,3.611,9.812C6.754,4.456,9.976,2.028,11.991.95c-4.375,4.471-5.7,14.688-4.477,18.83a3.927,3.927,0,0,0,1.2,1.917c.15.163,2.008,2.08,7.009,2.08,5.195,0,7-2.068,7.018-2.092a3.431,3.431,0,0,0,.876-1.493c.009-.025.658-1.844-.679-5.054,4.086,5.9,5.849,14.194-4.476,15.222q-1.281.1-2.74.1l16.2,18.027" transform="translate(0 -0.09)" fill="#fff" fill-rule="evenodd"/>
            <path id="Fill-16" d="M17.277,8.1a3.487,3.487,0,0,0-1.548.042c-.031.006-2.75.509-5.347,4.936a15.694,15.694,0,0,0-1.155,2.382C9.323,8.746,12.687-.69,18.286.04a5.52,5.52,0,0,1,.9.282A12.418,12.418,0,0,1,21.569,1.6a24.374,24.374,0,0,1,7.152,8.119,24.023,24.023,0,0,1,3.57,10.154,11.923,11.923,0,0,1-.066,2.673,5.294,5.294,0,0,1-.2.909,6.559,6.559,0,0,1-1.676,2.86s-.079.09-.241.24a8.279,8.279,0,0,1-.779.625,13.879,13.879,0,0,1-2.9,1.548c2.107-2.185,2.332-5.32,1.4-8.5-1.566-5.337-6.5-11.2-10.079-12.059-.115-.027-.468-.072-.468-.072" transform="translate(-0.88 0)" fill="#fff" fill-rule="evenodd"/>
          </g>
        </g>
      </g>
    </g>
  </g>
</svg>
